# xmcd
#
# Track frame offsets: 
#        150
#        11832
#        24022
#        36197
#        48067
#        61000
#        72175
#        85355
#        100910
#        111757
#        123590
#        134325
#        147365
#        161112
#        173825
#        184470
#        198302
#        211047
#
# Disc length: 2982 seconds
#
# Revision: 3
# Processed by: cddbd v1.4PL0 Copyright (c) Steve Scherf et al.
# Submitted via: ExactAudioCopy v0.95a3
#
DISCID=f70ba412
DTITLE=Various Artist - Blues Masters Vol.6 - Blues Originals
DYEAR=1993
DGENRE=Blues
TTITLE0=Sonny Boy Williamson - Bring It On Home
TTITLE1=Muddy Waters - You Need Love
TTITLE2=Larry Davis and His Band - Texas Flood
TTITLE3=Ann Cole With the Suburbans and Orchestra - Got My Mojo Workin' 
TTITLE3=(But It Just Won't Work On You)
TTITLE4=Howlin' Wolf - I Ain't Superstitious
TTITLE5=Robert Johnson - Love In Vain
TTITLE6=Otis Rush - I Can't Quit You Baby
TTITLE7=Henry Thomas - Bulldoze Blues
TTITLE8=Elmore James - Madison Blues
TTITLE9=Snooky Pryor - Someone To Love Me
TTITLE10=Jimmy Reed - I Ain't Got You
TTITLE11=Arthur "Big Boy" Crudup - That's All Right
TTITLE12=Bo Diddley - I'm A Man
TTITLE13=Little Walter - Boom, Boom Out Go The Lights
TTITLE14=Big Walter and His Thunderbirds - Pack Fair And Square
TTITLE15=Slim Harpo - I'm A King Bee
TTITLE16=G.L. Crockett - It's A Man Down There
TTITLE17=Howlin' Wolf - Back Door Man
EXTD=
EXTT0=
EXTT1=
EXTT2=
EXTT3=
EXTT4=
EXTT5=
EXTT6=
EXTT7=
EXTT8=
EXTT9=
EXTT10=
EXTT11=
EXTT12=
EXTT13=
EXTT14=
EXTT15=
EXTT16=
EXTT17=
PLAYORDER=
